<svg viewBox="0 0 1352 572" xmlns="http://www.w3.org/2000/svg">
  <g fill="none" fill-rule="evenodd" opacity=".853">
    <g fill="#03E2BC">
      <path fill-opacity=".2" d="M255.875 9H264v8.125h-8.125z"/>
      <path fill-opacity=".2" d="M254 13.688h5.313v5.313H254z"/>
      <path d="M255.875 13.688h3.75v3.438h-3.75z"/>
    </g>
    <g fill="#03E2BC">
      <path fill-opacity=".2" d="M1345.376 571.882l-7.303-3.562 3.562-7.302 7.303 3.561z"/>
      <path fill-opacity=".2" d="M1349.116 568.49l-4.775-2.329 2.33-4.775 4.774 2.33z"/>
      <path d="M1347.431 567.669l-3.37-1.644 1.507-3.09 3.37 1.644z"/>
    </g>
    <g fill="#03E2BC">
      <path fill-opacity=".2" d="M65.875 41H74v8.125h-8.125z"/>
      <path fill-opacity=".2" d="M64 45.688h5.313v5.313H64z"/>
      <path d="M65.875 45.688h3.75v3.438h-3.75z"/>
    </g>
    <g fill="#03E2BC">
      <path fill-opacity=".2" d="M1205.563 0h15.438v15.438h-15.438z"/>
      <path fill-opacity=".2" d="M1202 8.906h10.094V19H1202z"/>
      <path d="M1205.563 8.906h7.125v6.531h-7.125z"/>
    </g>
    <g fill="#3C5EEB">
      <path fill-opacity=".207" d="M347.178 567.95l-8.033-3.918 3.918-8.034 8.033 3.919z"/>
      <path fill-opacity=".207" d="M351.293 564.22l-5.253-2.562 2.562-5.252 5.252 2.562z"/>
      <path d="M349.438 563.316l-3.707-1.808 1.657-3.399 3.708 1.809z"/>
    </g>
    <g fill="#3C5EEB">
      <path fill-opacity=".207" d="M815.063 46h8.938v8.938h-8.938z"/>
      <path fill-opacity=".207" d="M813 51.156h5.844V57H813z"/>
      <path d="M815.063 51.156h4.125v3.781h-4.125z"/>
    </g>
    <g fill="#03E2BC">
      <path fill-opacity=".2" d="M13.875 314.844l-13.876-6.767L6.767 294.2l13.875 6.768z"/>
      <path fill-opacity=".2" d="M20.981 308.401l-9.072-4.424 4.425-9.073 9.072 4.425z"/>
      <path d="M17.779 306.84l-6.404-3.124 2.863-5.87 6.404 3.124z"/>
    </g>
    <g fill="#3C5EEB">
      <path fill-opacity=".207" d="M1207.111 423.226l-5.112-2.493 2.494-5.113 5.112 2.494z"/>
      <path fill-opacity=".207" d="M1209.73 420.853l-3.343-1.63 1.63-3.343 3.343 1.63z"/>
      <path d="M1208.55 420.277l-2.36-1.15 1.055-2.163 2.36 1.15z"/>
    </g>
    <g fill="#3C5EEB">
      <path fill-opacity=".207" d="M908.301 508.123l-9.493-4.63 4.63-9.495 9.494 4.63z"/>
      <path fill-opacity=".207" d="M913.164 503.714l-6.207-3.027 3.028-6.207 6.207 3.027z"/>
      <path d="M910.973 502.646l-4.382-2.137 1.96-4.017 4.381 2.137z"/>
    </g>
    <g fill="#3C5EEB">
      <path fill-opacity=".207" d="M445.313 82h5.688v5.688h-5.688z"/>
      <path fill-opacity=".207" d="M444 85.281h3.719V89H444z"/>
      <path d="M445.313 85.281h2.625v2.406h-2.625z"/>
    </g>
    <g fill="#3C5EEB">
      <path fill-opacity=".207" d="M1249.851 312.785l-5.112-2.494 2.493-5.112 5.113 2.493z"/>
      <path fill-opacity=".207" d="M1252.47 310.411l-3.343-1.63 1.63-3.343 3.343 1.63z"/>
      <path d="M1251.29 309.836l-2.36-1.151 1.055-2.163 2.36 1.151z"/>
    </g>
    <g fill="#3C5EEB">
      <path fill-opacity=".207" d="M285.438 310h10.563v10.563h-10.563z"/>
      <path fill-opacity=".207" d="M283 316.094h6.906V323H283z"/>
      <path d="M285.438 316.094h4.875v4.469h-4.875z"/>
    </g>
    <g fill="#3C5EEB">
      <path fill-opacity=".207" d="M455.313 200h5.688v5.688h-5.688z"/>
      <path fill-opacity=".207" d="M454 203.281h3.719V207H454z"/>
      <path d="M455.313 203.281h2.625v2.406h-2.625z"/>
    </g>
  </g>
</svg>