<svg viewBox="0 0 72 72" xmlns="http://www.w3.org/2000/svg">
  <g fill="#03E2BC" fill-rule="nonzero">
    <path d="M67.163 18.008C62.357 9.684 54.598 3.729 45.313 1.242 36.03-1.246 26.332.03 18.008 4.837 9.683 9.643 3.729 17.402 1.242 26.687-1.246 35.97.03 45.668 4.837 53.992c4.805 8.324 12.565 14.279 21.85 16.766 3.1.831 6.246 1.242 9.372 1.242 6.235 0 12.389-1.635 17.933-4.837 8.324-4.805 14.279-12.565 16.766-21.85 2.488-9.284 1.211-18.981-3.595-27.305zm-.025 26.336c-2.228 8.317-7.562 15.269-15.02 19.574-7.457 4.306-16.144 5.45-24.462 3.221-8.317-2.229-15.269-7.563-19.575-15.02-4.305-7.457-5.449-16.145-3.22-24.462 2.229-8.318 7.563-15.27 15.02-19.575 4.968-2.868 10.48-4.333 16.067-4.333 2.8 0 5.619.368 8.395 1.112 8.318 2.229 15.27 7.563 19.575 15.02 4.305 7.458 5.45 16.145 3.22 24.463z"/>
    <path d="M53.038 33.062L29.886 19.538a3.846 3.846 0 00-3.924 0A3.938 3.938 0 0024 22.976v27.048c0 1.435.733 2.72 1.962 3.438a3.879 3.879 0 001.962.538c.674 0 1.348-.18 1.962-.538l23.152-13.524A3.939 3.939 0 0055 36.5c0-1.435-.733-2.72-1.962-3.438zm-1.875 3.59L28.01 50.177a.154.154 0 01-.174 0c-.087-.05-.087-.12-.087-.152V22.976c0-.033 0-.101.087-.152a.175.175 0 01.089-.027c.04 0 .068.017.085.027l23.152 13.524c.028.016.087.05.087.152s-.059.136-.087.153zM58.606 18.902C54.128 12.997 47.397 9.03 40.138 8.018c-1.03-.144-1.98.592-2.12 1.644-.141 1.052.58 2.02 1.61 2.164 6.29.877 12.122 4.314 16 9.429.371.489.928.745 1.49.745.403 0 .809-.131 1.152-.402.822-.65.972-1.857.336-2.696z"/>
  </g>
</svg>